# xmcd
#
# Track frame offsets:
#	151
#	22444
#	44095
#	64542
#	88371
#	115458
#	137841
#
# Disc length: 2218 seconds
#
# Revision: 0
# Processed by: cddbd v1.5.2PL0 Copyright (c) Steve Scherf et al.
# Submitted via: dBpowerAMP V4.0
#
DISCID=6e08a807
DTITLE=Dele Bamgboye - Premier Gospel Clloection
DYEAR=1900
DGENRE=Gospel
TTITLE0=Oga Jesus
TTITLE1=My number One
TTITLE2=Mago Mgo
TTITLE3=None Holy As The Lord
TTITLE4=My Own Don Better
TTITLE5=Your Excellency
TTITLE6=Ayo Re Mbo
EXTD=
EXTT0=
EXTT1=
EXTT2=
EXTT3=
EXTT4=
EXTT5=
EXTT6=
PLAYORDER=
